<svg width="14" height="14" viewBox="0 0 14 14" xmlns="http://www.w3.org/2000/svg">
<path d="M13.2268 0H0.772706C0.346243 0 0 0.345551 0 0.772706V13.2268C0 13.654 0.346243 14 0.772706 14H7.47764V8.57838H5.6533V6.46519H7.47764V4.90687C7.47764 3.09889 8.5816 2.11388 10.1948 2.11388C10.9682 2.11388 11.6314 2.17174 11.8248 2.19686V4.08668L10.7059 4.08714C9.82872 4.08714 9.65952 4.50415 9.65952 5.11572V6.4645H11.7522L11.4786 8.57746H9.65929V13.9993H13.2266C13.6535 13.9993 14 13.6528 14 13.2268V0.772245C13.9998 0.345551 13.6538 0 13.2268 0Z"/>
</svg>
