<svg width="16" height="16" viewBox="0 0 16 16" fill="none" xmlns="http://www.w3.org/2000/svg">
<mask id="mask0" mask-type="alpha" maskUnits="userSpaceOnUse" x="0" y="0" width="16" height="16">
<rect width="16" height="16" fill="#C4C4C4"/>
</mask>
<g mask="url(#mask0)">
<path d="M8.00007 8.52258C10.2178 8.52245 11.0157 6.1518 11.2246 4.20448C11.4819 1.80549 10.4194 0 8.00007 0C5.58111 0 4.51802 1.80536 4.77553 4.20445C4.98466 6.15175 5.78232 8.52276 8.00007 8.52258Z" fill="#1B1B1C"/>
<path d="M13.9991 14.1675C13.9748 13.4119 13.8919 12.6528 13.7684 11.9089C13.2089 8.53999 10.5755 9.13248 10.5755 9.13248C9.90168 9.9214 9.023 10.3341 7.99975 10.3342C6.9768 10.3342 6.09822 9.92145 5.42444 9.13248C5.42444 9.13248 2.791 8.53988 2.23164 11.9089C2.1081 12.6528 2.02513 13.4119 2.00092 14.1675C1.98216 14.7528 2.25285 14.8348 2.71148 15.0116C3.28579 15.2327 3.87872 15.3968 4.47561 15.5314C5.62842 15.7913 6.81672 15.9911 7.99993 16C9.18313 15.991 10.3714 15.7913 11.5242 15.5314C12.1211 15.3969 12.7141 15.2327 13.2884 15.0116C13.7472 14.8349 14.0178 14.7529 13.9991 14.1675Z" fill="#1B1B1C"/>
</g>
</svg>
