<svg width="14" height="14" viewBox="0 0 14 14" xmlns="http://www.w3.org/2000/svg">
<path d="M10.1364 0H3.86339C1.73312 0 0 1.7332 0 3.86347V10.1364C0 12.2668 1.73312 13.9999 3.86339 13.9999H10.1364C12.2668 13.9999 13.9999 12.2667 13.9999 10.1364V3.86347C14 1.7332 12.2668 0 10.1364 0ZM12.7579 10.1364C12.7579 11.5819 11.5819 12.7578 10.1364 12.7578H3.86339C2.41803 12.7579 1.24214 11.5819 1.24214 10.1364V3.86347C1.24214 2.41812 2.41803 1.24214 3.86339 1.24214H10.1364C11.5818 1.24214 12.7578 2.41812 12.7578 3.86347L12.7579 10.1364Z"/>
<path d="M6.99997 3.39268C5.0108 3.39268 3.39254 5.01094 3.39254 7.0001C3.39254 8.98918 5.0108 10.6074 6.99997 10.6074C8.98913 10.6074 10.6074 8.98918 10.6074 7.0001C10.6074 5.01094 8.98913 3.39268 6.99997 3.39268ZM6.99997 9.36514C5.6958 9.36514 4.63468 8.30419 4.63468 7.00002C4.63468 5.69577 5.69572 4.63474 6.99997 4.63474C8.30421 4.63474 9.36525 5.69577 9.36525 7.00002C9.36525 8.30419 8.30413 9.36514 6.99997 9.36514Z"/>
<path d="M10.7587 2.33944C10.5194 2.33944 10.2843 2.43632 10.1153 2.60608C9.94543 2.77501 9.8478 3.01019 9.8478 3.25034C9.8478 3.48974 9.94551 3.72484 10.1153 3.8946C10.2842 4.06353 10.5194 4.16124 10.7587 4.16124C10.9988 4.16124 11.2332 4.06353 11.403 3.8946C11.5727 3.72484 11.6696 3.48966 11.6696 3.25034C11.6696 3.01019 11.5727 2.77501 11.403 2.60608C11.234 2.43632 10.9988 2.33944 10.7587 2.33944Z"/>
</svg>
