<svg width="16" height="13" viewBox="0 0 16 13" xmlns="http://www.w3.org/2000/svg">
<path d="M14.5706 13C14.9303 13 15.2419 12.8772 15.5068 12.6347L10.974 7.94697C10.8652 8.0275 10.7598 8.10582 10.6602 8.18028C10.321 8.43874 10.0457 8.64042 9.83429 8.78494C9.62291 8.92979 9.34167 9.07743 8.9906 9.22817C8.6393 9.37908 8.31202 9.4543 8.00842 9.4543H7.99064C7.687 9.4543 7.35972 9.37912 7.00845 9.22817C6.65718 9.07743 6.37594 8.92979 6.16477 8.78494C5.95339 8.64042 5.67822 8.43877 5.33883 8.18028C5.24425 8.10858 5.13936 8.02991 5.02596 7.94571L0.492238 12.6347C0.757123 12.8772 1.06895 13 1.42856 13H14.5706Z"/>
<path d="M0.90184 4.99514C0.562652 4.76129 0.261864 4.49346 0 4.19178V11.3238L3.99523 7.1922C3.19596 6.61515 2.16614 5.88364 0.90184 4.99514Z"/>
<path d="M15.1065 4.99514C13.8904 5.84633 12.8569 6.57911 12.0057 7.19386L15.9993 11.324V4.19178C15.7433 4.48739 15.4457 4.75504 15.1065 4.99514Z"/>
<path d="M14.5714 0H1.42933C0.970841 0 0.618348 0.160108 0.371415 0.479995C0.124278 0.800032 0.000912741 1.20027 0.000912741 1.68027C0.000912741 2.06798 0.164625 2.48808 0.491904 2.94068C0.819183 3.3931 1.16743 3.74846 1.53648 4.00695C1.7388 4.15477 2.34892 4.5934 3.36683 5.32269C3.91632 5.71647 4.39419 6.0597 4.80483 6.35589C5.15485 6.60809 5.45672 6.82651 5.70594 7.00776C5.73456 7.02852 5.77955 7.06181 5.83927 7.10596C5.90361 7.15376 5.98503 7.2144 6.08548 7.28941C6.27891 7.43408 6.4396 7.55102 6.56758 7.64036C6.69539 7.72972 6.85025 7.82955 7.03191 7.94039C7.21343 8.05108 7.38463 8.13432 7.54532 8.18968C7.70604 8.24502 7.85483 8.27277 7.9917 8.27277H8.00948C8.14632 8.27277 8.29513 8.24502 8.45588 8.18968C8.61654 8.13432 8.7876 8.05126 8.96926 7.94039C9.15075 7.82955 9.3054 7.72951 9.43362 7.64036C9.5616 7.55102 9.72229 7.43411 9.91575 7.28941C10.016 7.2144 10.0974 7.15373 10.1618 7.10611C10.2215 7.06178 10.2665 7.0287 10.2953 7.00776C10.4894 6.86805 10.792 6.65054 11.1988 6.35844C11.9389 5.8266 13.029 5.04381 14.4736 4.00695C14.9081 3.69313 15.2711 3.31443 15.5628 2.87138C15.854 2.42833 16 1.9636 16 1.47732C16 1.07104 15.8585 0.723402 15.576 0.433855C15.2932 0.144668 14.9583 0 14.5714 0Z"/>
</svg>
