<svg width="37" height="50" viewBox="0 0 37 50" fill="none" xmlns="http://www.w3.org/2000/svg">
<path d="M18.1081 0C8.12324 0 0 8.12324 0 18.108C0 30.4994 16.205 48.6907 16.8949 49.4591C17.543 50.1809 18.6744 50.1796 19.3213 49.4591C20.0112 48.6907 36.2162 30.4994 36.2162 18.108C36.216 8.12324 28.0929 0 18.1081 0ZM18.1081 27.2187C13.0845 27.2187 8.99756 23.1316 8.99756 18.108C8.99756 13.0844 13.0846 8.99746 18.1081 8.99746C23.1316 8.99746 27.2186 13.0845 27.2186 18.1081C27.2186 23.1317 23.1316 27.2187 18.1081 27.2187Z" fill="#F13737"/>
</svg>
