<svg width="22" height="12" viewBox="0 0 22 12" xmlns="http://www.w3.org/2000/svg">
<path fill-rule="evenodd" clip-rule="evenodd" d="M18.9341 7.63015C19.6639 8.31689 20.4342 8.96301 21.0887 9.719C21.3778 10.0549 21.6515 10.4016 21.8609 10.7915C22.1577 11.3457 21.8889 11.9556 21.3733 11.9887L18.1683 11.9873C17.3417 12.0534 16.6822 11.7327 16.1278 11.1879C15.684 10.7523 15.2731 10.2886 14.8464 9.83828C14.6715 9.65421 14.4884 9.48101 14.2697 9.3441C13.8321 9.07037 13.4524 9.15418 13.2023 9.59401C12.9477 10.0414 12.8899 10.5367 12.8649 11.0353C12.8306 11.7627 12.6024 11.954 11.8443 11.9873C10.2242 12.0609 8.6866 11.8246 7.25822 11.0369C5.99891 10.3424 5.02236 9.36201 4.17239 8.25209C2.51748 6.09085 1.25014 3.716 0.111107 1.27462C-0.14528 0.724571 0.0422219 0.429308 0.671878 0.418858C1.71745 0.39928 2.76288 0.400674 3.80968 0.417464C4.23463 0.423456 4.51595 0.658384 4.68003 1.04533C5.24572 2.386 5.9379 3.66152 6.80674 4.84382C7.03812 5.15859 7.27405 5.47336 7.61002 5.69492C7.9817 5.94022 8.26468 5.85892 8.43954 5.45985C8.55049 5.20681 8.59906 4.93426 8.62407 4.66324C8.70691 3.73084 8.71782 2.80005 8.57254 1.87093C8.48334 1.29106 8.14448 0.915676 7.54417 0.805946C7.23783 0.75 7.28344 0.640131 7.43177 0.471598C7.68938 0.180934 7.93168 0 8.41467 0H12.0368C12.6071 0.108477 12.7337 0.355388 12.8118 0.908431L12.8149 4.78649C12.8087 5.00058 12.9258 5.6359 13.3259 5.77761C13.6461 5.8785 13.8572 5.63159 14.0493 5.43588C14.9166 4.5487 15.5355 3.50023 16.0885 2.41456C16.3339 1.93718 16.5449 1.44141 16.7494 0.946053C16.9009 0.578472 17.1386 0.397608 17.5682 0.40562L21.0543 0.408616C21.1577 0.408616 21.2623 0.410079 21.3624 0.426591C21.9498 0.523084 22.1108 0.766652 21.9294 1.31955C21.6435 2.18702 21.0873 2.90992 20.5434 3.63616C19.9621 4.41152 19.3403 5.16034 18.7638 5.94029C18.2341 6.65253 18.2761 7.01154 18.9341 7.63015Z"/>
</svg>
