<svg xmlns="http://www.w3.org/2000/svg"><style>:root svg:not(:target){display:none}</style><svg fill="none" id="beds" viewBox="0 0 16 16"><mask id="beds_0" mask-type="alpha" maskUnits="userSpaceOnUse" x="0" y="0" width="16" height="16"><path fill="#C4C4C4" d="M0 0h16v16H0z"></path></mask><g mask="url(#beds_0)" fill="#1B1B1C"><path d="M1 10a3 3 0 0 1 3-3h8a3 3 0 0 1 3 3v4H1v-4ZM1 14h2v2H1v-2ZM13 14h2v2h-2v-2ZM5 0a3 3 0 0 0-3 3v3h3V4a1 1 0 0 1 1-1h4a1 1 0 0 1 1 1v2h3V3a3 3 0 0 0-3-3H5Z"></path></g></svg><svg id="calendar" viewBox="0 0 13 13"><path d="M0 0h3v3H0V0ZM5 0h3v3H5V0ZM13 0h-3v3h3V0ZM0 5h3v3H0V5ZM8 5H5v3h3V5ZM10 5h3v3h-3V5ZM3 10H0v3h3v-3ZM5 10h3v3H5v-3ZM13 10h-3v3h3v-3Z"></path></svg><svg id="facebook" viewBox="0 0 14 14"><path d="M13.227 0H.773A.773.773 0 0 0 0 .773v12.454c0 .427.346.773.773.773h6.705V8.578H5.653V6.465h1.825V4.907c0-1.808 1.104-2.793 2.717-2.793.773 0 1.436.058 1.63.083v1.89h-1.12c-.876 0-1.045.417-1.045 1.029v1.349h2.092l-.273 2.112h-1.82V14h3.568a.774.774 0 0 0 .773-.772V.772A.773.773 0 0 0 13.227 0Z"></path></svg><svg fill="none" id="guests" viewBox="0 0 16 16"><mask id="guests_0" mask-type="alpha" maskUnits="userSpaceOnUse" x="0" y="0" width="16" height="16"><path fill="#C4C4C4" d="M0 0h16v16H0z"></path></mask><g mask="url(#guests_0)" fill="#1B1B1C"><path d="M8 8.523c2.218 0 3.016-2.371 3.225-4.319C11.482 1.805 10.419 0 8 0S4.518 1.805 4.776 4.204C4.985 6.152 5.782 8.523 8 8.523ZM14 14.168a17.222 17.222 0 0 0-.232-2.26c-.56-3.368-3.193-2.776-3.193-2.776-.673.79-1.552 1.202-2.575 1.202-1.023 0-1.902-.413-2.576-1.202 0 0-2.633-.592-3.192 2.777A17.2 17.2 0 0 0 2 14.167c-.019.586.252.668.71.845.575.22 1.168.385 1.765.52 1.152.26 2.34.46 3.524.468 1.183-.009 2.371-.209 3.524-.469.597-.134 1.19-.298 1.764-.52.46-.176.73-.258.711-.843Z"></path></g></svg><svg id="instagram" viewBox="0 0 14 14"><path d="M10.136 0H3.863A3.868 3.868 0 0 0 0 3.863v6.273A3.868 3.868 0 0 0 3.863 14h6.273A3.868 3.868 0 0 0 14 10.136V3.863A3.868 3.868 0 0 0 10.136 0Zm2.622 10.136a2.624 2.624 0 0 1-2.622 2.622H3.863a2.624 2.624 0 0 1-2.62-2.622V3.863a2.624 2.624 0 0 1 2.62-2.62h6.273a2.624 2.624 0 0 1 2.622 2.62v6.273Z"></path><path d="M7 3.393A3.611 3.611 0 0 0 3.393 7 3.611 3.611 0 0 0 7 10.607 3.611 3.611 0 0 0 10.607 7 3.611 3.611 0 0 0 7 3.393Zm0 5.972A2.368 2.368 0 0 1 4.635 7 2.368 2.368 0 0 1 7 4.635 2.368 2.368 0 0 1 9.365 7 2.368 2.368 0 0 1 7 9.365ZM10.759 2.34a.914.914 0 0 0-.911.91c0 .24.098.475.267.645a.918.918 0 0 0 .644.266.92.92 0 0 0 .644-.266.915.915 0 0 0 0-1.289.915.915 0 0 0-.644-.267Z"></path></svg><svg id="mail" viewBox="0 0 16 13"><path d="M14.57 13c.36 0 .672-.123.937-.365l-4.533-4.688-.314.233c-.339.259-.614.46-.826.605a5.028 5.028 0 0 1-.843.443 2.5 2.5 0 0 1-.983.226h-.017a2.5 2.5 0 0 1-.983-.226 5.012 5.012 0 0 1-.843-.443 21.039 21.039 0 0 1-.826-.605l-.313-.234-4.534 4.689c.265.242.577.365.937.365H14.57ZM.902 4.995A4.782 4.782 0 0 1 0 4.192v7.132l3.995-4.132C3.196 6.615 2.166 5.884.902 4.995ZM15.107 4.995c-1.217.851-2.25 1.584-3.101 2.199l3.993 4.13V4.192a4.978 4.978 0 0 1-.893.803Z"></path><path d="M14.571 0H1.43C.971 0 .62.16.371.48c-.247.32-.37.72-.37 1.2 0 .388.164.808.49 1.26.328.453.676.808 1.045 1.067.203.148.813.586 1.83 1.316a589.05 589.05 0 0 1 2.34 1.685c.029.02.074.054.133.098l.246.183c.194.145.355.262.483.351.127.09.282.19.464.3.181.111.353.194.513.25.161.055.31.083.447.083h.017c.137 0 .286-.028.447-.083.16-.056.332-.139.513-.25.182-.11.336-.21.465-.3.128-.089.288-.206.482-.35a56.611 56.611 0 0 1 .38-.282l.903-.65 3.275-2.351a4.323 4.323 0 0 0 1.089-1.136A2.5 2.5 0 0 0 16 1.477a1.44 1.44 0 0 0-.424-1.043A1.358 1.358 0 0 0 14.571 0Z"></path></svg><svg fill="none" id="map-marker" viewBox="0 0 37 50"><path d="M18.108 0C8.123 0 0 8.123 0 18.108c0 12.391 16.205 30.583 16.895 31.351.648.722 1.78.72 2.426 0 .69-.768 16.895-18.96 16.895-31.351C36.216 8.123 28.093 0 18.108 0Zm0 27.219c-5.024 0-9.11-4.087-9.11-9.111 0-5.024 4.087-9.11 9.11-9.11 5.024 0 9.11 4.087 9.11 9.11 0 5.024-4.086 9.11-9.11 9.11Z" fill="#F13737"></path></svg><svg fill="none" id="mapmarker" viewBox="0 0 14 19"><path d="M7 0C3.14 0 0 3.087 0 6.881c0 4.709 6.264 11.622 6.531 11.913.25.275.688.274.938 0C7.736 18.503 14 11.59 14 6.881 14 3.087 10.86 0 7 0Zm0 10.343c-1.942 0-3.522-1.553-3.522-3.462 0-1.909 1.58-3.462 3.522-3.462 1.942 0 3.522 1.553 3.522 3.462 0 1.91-1.58 3.462-3.522 3.462Z" fill="#fff"></path></svg><svg fill="none" id="phone" viewBox="0 0 14 14"><path d="M13.97 10.847c-.04-.119-.291-.295-.755-.527a23.8 23.8 0 0 0-.537-.298 49.373 49.373 0 0 1-.632-.348c-.189-.106-.366-.209-.532-.308-.026-.02-.109-.078-.248-.174a2.8 2.8 0 0 0-.353-.214.651.651 0 0 0-.284-.07c-.132 0-.298.095-.497.284a4.844 4.844 0 0 0-.546.617 5.987 5.987 0 0 1-.527.616c-.186.189-.339.283-.458.283a.677.677 0 0 1-.224-.05 2.338 2.338 0 0 1-.204-.084 3.706 3.706 0 0 1-.238-.14 6.303 6.303 0 0 0-.189-.114 10.448 10.448 0 0 1-2.337-1.73 10.444 10.444 0 0 1-1.73-2.336 5.735 5.735 0 0 0-.114-.19 3.587 3.587 0 0 1-.14-.238 2.155 2.155 0 0 1-.084-.204.673.673 0 0 1-.05-.223c0-.12.095-.272.284-.458a5.99 5.99 0 0 1 .616-.527c.222-.165.428-.348.617-.546.189-.2.283-.365.283-.497a.65.65 0 0 0-.07-.284 2.764 2.764 0 0 0-.213-.353l-.174-.248c-.1-.166-.202-.343-.309-.532a50.3 50.3 0 0 1-.348-.632c-.126-.232-.225-.41-.298-.537C3.447.322 3.272.07 3.152.03A.557.557 0 0 0 2.943 0c-.179 0-.412.033-.7.1a3.938 3.938 0 0 0-.682.208C1.23.448.878.852.507 1.521.17 2.144 0 2.761 0 3.371c0 .178.012.352.035.521.023.17.064.36.124.572.06.212.108.37.144.472l.204.552c.1.265.16.428.179.487.232.65.507 1.23.825 1.74.524.849 1.238 1.726 2.143 2.63.905.905 1.781 1.62 2.63 2.143.51.318 1.09.593 1.74.826.06.02.222.079.487.179.266.099.45.167.552.203.103.037.26.085.472.145.213.06.403.1.572.124.17.023.343.035.522.035.61 0 1.227-.17 1.85-.507.67-.371 1.074-.723 1.213-1.054.073-.166.142-.393.208-.681.067-.289.1-.522.1-.701a.554.554 0 0 0-.03-.21Z" fill="#fff"></path></svg><svg id="vkontakte" viewBox="0 0 22 12"><path fill-rule="evenodd" clip-rule="evenodd" d="M18.934 7.63c.73.687 1.5 1.333 2.155 2.089.289.336.563.683.772 1.072.297.555.028 1.165-.488 1.198l-3.205-.002c-.826.066-1.486-.254-2.04-.8-.444-.435-.855-.898-1.282-1.349a3.002 3.002 0 0 0-.576-.494c-.438-.274-.818-.19-1.068.25-.254.447-.312.943-.337 1.441-.034.728-.263.919-1.02.952-1.62.074-3.158-.162-4.587-.95-1.26-.695-2.236-1.675-3.086-2.785C2.517 6.091 1.25 3.716.112 1.275-.146.725.041.429.671.419A90.248 90.248 0 0 1 3.81.417c.425.006.706.241.87.628.566 1.341 1.258 2.617 2.127 3.799.231.315.467.63.803.85.372.246.655.165.83-.234.11-.253.16-.526.184-.797.083-.932.094-1.863-.051-2.792-.09-.58-.429-.955-1.029-1.065C7.238.75 7.284.64 7.432.472 7.689.18 7.932 0 8.415 0h3.622c.57.108.697.355.775.908l.003 3.878c-.006.215.11.85.51.992.321.1.532-.146.724-.342.868-.887 1.487-1.936 2.04-3.021.245-.478.456-.974.66-1.469.152-.368.39-.548.82-.54l3.485.003c.104 0 .208.001.308.018.588.096.749.34.567.893-.285.867-.842 1.59-1.386 2.316-.58.776-1.203 1.524-1.78 2.304-.529.713-.487 1.072.171 1.69Z"></path></svg></svg>